# Blender v2.76 (sub 11) OBJ File: 'human_low.blend'
# www.blender.org
mtllib HumanToken.mtl
o HumanLow_Cube
v -0.170600 0.496071 0.018033
v -0.152454 0.509029 -0.078194
v -0.079984 0.509029 -0.078194
v -0.061838 0.496071 0.018033
v -0.121979 0.091264 0.042357
v -0.108886 0.091264 -0.043226
v -0.181393 0.091264 -0.043226
v -0.168300 0.091264 0.042357
v -0.182757 0.006920 0.054877
v -0.107522 0.006920 0.039507
v -0.110862 0.006920 -0.088348
v -0.192972 0.006920 -0.066443
v -0.115293 0.041322 -0.200956
v -0.181230 0.034546 -0.189804
v -0.193478 0.005216 -0.180618
v -0.096801 0.005216 -0.195016
v -0.072715 0.465609 -0.088860
v -0.159724 0.465609 -0.088860
v -0.063546 0.379098 0.056560
v -0.182144 0.379098 0.056560
v -0.136491 0.904262 -0.107869
v -0.136352 0.894105 0.066967
v -0.161242 0.791498 0.065345
v -0.112111 1.036596 -0.087176
v -0.130457 1.036596 0.040505
v -0.126028 1.224230 -0.084774
v -0.139637 1.264510 0.095103
v -0.108120 1.362087 -0.068527
v -0.144117 1.366593 0.070560
v -0.244940 1.083195 0.064806
v -0.246135 1.061268 -0.014235
v -0.187746 1.041457 0.061065
v -0.181285 1.020534 -0.020679
v -0.052850 1.397644 -0.001530
v -0.261355 1.061123 0.073403
v -0.203772 0.994395 0.073403
v -0.291620 0.847256 -0.039891
v -0.260959 0.821566 -0.039891
v -0.293917 0.845704 0.018369
v -0.198370 1.296194 -0.049442
v -0.214791 1.299980 0.060974
v -0.337178 0.752316 -0.091724
v -0.240126 0.796577 -0.065469
v -0.258697 0.794945 0.029864
v -0.322716 0.727712 0.041992
v -0.270755 0.700598 -0.091724
v -0.268191 0.722359 0.040490
v -0.058006 1.438179 -0.001530
v -0.050476 1.423638 -0.090587
v -0.073563 1.511901 -0.092831
v -0.066153 1.609476 -0.088142
v -0.073563 1.507687 0.053732
v -0.066153 1.612729 0.054872
v 0.000001 1.649267 0.020072
v 0.000002 1.641124 -0.079282
v 0.066152 1.612729 0.054872
v 0.000002 1.612763 0.089355
v 0.000002 1.487382 0.104626
v 0.073563 1.507687 0.053732
v 0.066152 1.609476 -0.088142
v 0.073563 1.511901 -0.092831
v 0.000002 1.593470 -0.136611
v 0.000002 1.495381 -0.148885
v 0.000002 1.415293 -0.134709
v 0.050476 1.423638 -0.090587
v 0.000002 1.423053 0.065259
v 0.000002 1.400551 -0.068277
v 0.058006 1.438179 -0.001529
v 0.268191 0.722359 0.040490
v 0.270755 0.700598 -0.091724
v 0.322716 0.727712 0.041992
v 0.258697 0.794945 0.029864
v 0.240126 0.796577 -0.065469
v 0.337178 0.752316 -0.091724
v 0.214791 1.299980 0.060974
v 0.198370 1.296194 -0.049442
v 0.000002 1.359047 -0.072759
v 0.000002 1.361616 0.083334
v 0.293917 0.845704 0.018369
v 0.260959 0.821566 -0.039891
v 0.291619 0.847256 -0.039891
v 0.203771 0.994395 0.073403
v 0.261355 1.061123 0.073403
v 0.052850 1.397644 -0.001529
v 0.181285 1.020534 -0.020678
v 0.187746 1.041457 0.061065
v 0.246135 1.061268 -0.014235
v 0.244940 1.083195 0.064806
v 0.144117 1.366593 0.070560
v 0.108119 1.362087 -0.068527
v 0.000002 1.223465 -0.118246
v 0.000002 1.277207 0.126711
v 0.139637 1.264510 0.095103
v 0.126028 1.224230 -0.084774
v 0.000002 1.033618 -0.116104
v 0.000002 1.033618 0.076321
v 0.130457 1.036596 0.040505
v 0.112111 1.036596 -0.087176
v 0.161242 0.791498 0.065345
v 0.000002 0.785343 0.084972
v 0.000002 0.786664 -0.106580
v 0.000002 0.871984 0.115918
v 0.000002 0.877726 -0.114971
v 0.136352 0.894105 0.066967
v 0.136491 0.904262 -0.107869
v 0.182144 0.379098 0.056560
v 0.063546 0.379098 0.056560
v 0.159724 0.465609 -0.088860
v 0.072714 0.465609 -0.088860
v 0.096801 0.005216 -0.195016
v 0.193478 0.005216 -0.180618
v 0.181230 0.034546 -0.189804
v 0.115293 0.041322 -0.200956
v 0.192971 0.006920 -0.066443
v 0.110862 0.006920 -0.088348
v 0.107522 0.006920 0.039507
v 0.182757 0.006920 0.054877
v 0.168300 0.091264 0.042357
v 0.181393 0.091264 -0.043226
v 0.108885 0.091264 -0.043226
v 0.121979 0.091264 0.042357
v 0.061838 0.496071 0.018033
v 0.079984 0.509029 -0.078194
v 0.152454 0.509029 -0.078194
v 0.170600 0.496071 0.018033
v -0.182757 0.006920 0.054877
v -0.107522 0.006920 0.039507
v -0.193478 0.005216 -0.180618
v -0.096801 0.005216 -0.195016
v -0.192972 0.006920 -0.066443
v -0.110862 0.006920 -0.088348
v -0.050476 1.423638 -0.090587
v 0.000002 1.415293 -0.134709
v 0.050476 1.423638 -0.090587
v 0.000002 1.359047 -0.072759
v 0.000002 0.785343 0.084972
v 0.000002 0.785343 0.084972
v 0.000002 0.786664 -0.106580
v 0.000002 0.786664 -0.106580
v 0.192971 0.006920 -0.066443
v 0.182757 0.006920 0.054877
v 0.110862 0.006920 -0.088348
v 0.107522 0.006920 0.039507
v 0.096801 0.005216 -0.195016
v 0.193478 0.005216 -0.180618
vt 0.572936 0.550939
vt 0.600634 0.550939
vt 0.609278 0.500506
vt 0.564292 0.500506
vt 0.565107 0.469728
vt 0.568938 0.375414
vt 0.608365 0.382082
vt 0.608463 0.469727
vt 0.568938 0.521077
vt 0.557881 0.499487
vt 0.615688 0.499487
vt 0.608365 0.517025
vt 0.469727 0.550939
vt 0.382082 0.517025
vt 0.387575 0.499487
vt 0.455845 0.500506
vt 0.442747 0.500506
vt 0.378966 0.499487
vt 0.375414 0.521077
vt 0.520901 0.550939
vt 0.519197 0.500506
vt 0.528388 0.500506
vt 0.566289 0.442747
vt 0.615386 0.455845
vt 0.615688 0.387575
vt 0.557881 0.378966
vt 0.609278 0.528388
vt 0.564292 0.519197
vt 0.547826 0.800739
vt 0.543479 0.774776
vt 0.595505 0.774776
vt 0.591159 0.800739
vt 0.565107 0.550939
vt 0.608463 0.550939
vt 0.537997 0.723047
vt 0.608912 0.723047
vt 0.602009 0.792990
vt 0.536976 0.792990
vt 0.529394 0.723047
vt 0.442441 0.774776
vt 0.506357 0.792990
vt 0.448819 0.800739
vt 0.499999 0.966748
vt 0.581614 1.037064
vt 0.499999 1.021198
vt 0.534647 0.969638
vt 0.535617 1.030992
vt 0.431075 1.037064
vt 0.499999 0.017764
vt 0.581531 0.030992
vt 0.596413 -0.030362
vt 0.499999 -0.034042
vt 0.431075 0.037064
vt 0.535617 0.030992
vt 0.519794 0.116193
vt 0.443448 0.116193
vt 0.499999 0.114412
vt 0.578006 0.116193
vt 0.499999 0.021198
vt 0.581614 0.037064
vt 0.567036 0.116193
vt 0.444884 0.228387
vt 0.552440 0.252472
vt 0.532087 0.119099
vt 0.479200 0.106589
vt 0.646460 0.144056
vt 0.656275 0.130858
vt 0.621844 0.090959
vt 0.612261 0.119099
vt 0.534324 0.144056
vt 0.471479 0.137179
vt 0.539465 0.130858
vt 0.539465 0.090959
vt 0.612742 0.106589
vt 0.656038 -0.012383
vt 0.674371 0.002979
vt 0.647174 0.137179
vt 0.675745 0.002051
vt 0.654686 -0.028301
vt 0.471722 0.002979
vt 0.506558 0.002051
vt 0.513431 -0.028301
vt 0.471722 -0.012383
vt 0.531601 0.494660
vt 0.564649 0.454599
vt 0.586174 0.537765
vt 0.499999 0.452068
vt 0.499999 0.545403
vt 0.583495 0.252472
vt 0.499999 0.260064
vt 0.499999 0.310536
vt 0.586174 0.313511
vt 0.575357 0.228387
vt 0.564649 0.310817
vt 0.499999 0.309000
vt 0.499999 0.221696
vt 0.618614 0.271417
vt 0.466011 0.271417
vt 0.532033 0.273681
vt 0.628433 0.273681
vt 0.674371 0.471722
vt 0.656038 0.471722
vt 0.643581 0.456428
vt 0.701613 0.440728
vt 0.440728 -0.053790
vt 0.520683 -0.068502
vt 0.471722 0.987617
vt 0.513431 0.971699
vt 0.456428 0.972675
vt 0.692965 0.520683
vt 0.661896 0.440728
vt 0.660363 0.519785
vt 0.701613 0.946210
vt 0.643581 0.972675
vt 0.661896 0.915285
vt 0.519785 0.928297
vt 0.440728 0.915285
vt 0.692965 -0.068502
vt 0.660363 -0.071703
vt 0.499999 0.965958
vt 0.596413 0.969638
vt 0.431845 0.966748
vt 0.546383 0.965958
vt 0.452068 0.309000
vt 0.494660 0.332078
vt 0.494660 0.356316
vt 0.454749 0.333817
vt 0.545403 0.310536
vt 0.534595 0.347271
vt 0.499999 0.454749
vt 0.534684 0.494660
vt 0.530182 0.441409
vt 0.499999 0.415026
vt 0.530182 0.347621
vt 0.547465 0.400560
vt 0.499999 0.390519
vt 0.499999 0.342632
vt 0.519939 0.398947
vt 0.436981 0.400560
vt 0.441409 0.347621
vt 0.558134 0.385736
vt 0.520674 0.466723
vt 0.440007 0.463518
vt 0.499999 0.448146
vt 0.542684 0.463518
vt 0.499999 0.483939
vt 0.499999 0.554639
vt 0.499999 0.509830
vt 0.542684 0.520674
vt 0.542684 0.440007
vt 0.499999 0.445724
vt 0.499999 0.385736
vt 0.499999 0.456096
vt 0.542684 0.466723
vt 0.547465 0.398947
vt 0.457316 0.463518
vt 0.452535 0.400560
vt 0.452535 0.398947
vt 0.457316 0.466723
vt 0.457316 0.440007
vt 0.457316 0.520674
vt 0.469819 0.347621
vt 0.469819 0.441409
vt 0.465316 0.494660
vt 0.416505 0.252472
vt 0.421995 0.116193
vt 0.432964 0.116193
vt 0.424643 0.228387
vt 0.408842 0.800739
vt 0.452174 0.800739
vt 0.418386 1.037064
vt 0.397991 0.792990
vt 0.403587 0.969638
vt 0.463024 0.792990
vt 0.324255 0.002051
vt 0.345314 -0.028301
vt 0.339637 -0.071703
vt 0.307035 -0.068502
vt 0.298387 0.946210
vt 0.338104 0.915285
vt 0.356419 0.972675
vt 0.307035 0.520683
vt 0.339637 0.519785
vt 0.338104 0.440728
vt 0.298387 0.440728
vt 0.325629 0.002979
vt 0.298387 -0.053790
vt 0.356419 -0.027325
vt 0.343962 -0.012383
vt 0.387739 0.119099
vt 0.353540 0.144056
vt 0.371567 0.273681
vt 0.381386 0.271417
vt 0.352826 0.137179
vt 0.387258 0.106589
vt 0.413826 0.313511
vt 0.435351 0.310817
vt 0.413826 0.537765
vt 0.468399 0.494660
vt 0.435351 0.454599
vt 0.343725 0.130858
vt 0.378157 0.090959
vt 0.418386 0.037064
vt 0.418470 0.030992
vt 0.403587 -0.030362
vt 0.462003 0.723047
vt 0.391088 0.723047
vt 0.399367 0.550939
vt 0.427064 0.550939
vt 0.456521 0.774776
vt 0.404495 0.774776
vt 0.391537 0.550939
vt 0.434893 0.550939
vt 0.390722 0.528388
vt 0.435708 0.519197
vt 0.433711 0.442747
vt 0.384614 0.455845
vt 0.442119 0.378966
vt 0.384312 0.387575
vt 0.431062 0.521077
vt 0.391635 0.517025
vt 0.384312 0.499488
vt 0.442119 0.499488
vt 0.434893 0.469728
vt 0.391537 0.469727
vt 0.391635 0.382082
vt 0.431062 0.375414
vt 0.435708 0.500506
vt 0.390722 0.500506
vt 0.000000 0.000000
vt 1.000000 1.000000
vt 1.000000 0.000000
vn 0.685100 -0.025700 0.728000
vn -0.659700 0.060400 0.749000
vn -0.625800 0.144200 0.766500
vn 0.769700 0.076800 0.633700
vn 0.872800 0.244000 -0.422700
vn 0.444700 0.404500 -0.799100
vn -0.555600 0.398200 -0.729900
vn -0.866300 0.339600 -0.366200
vn 0.803700 -0.024700 -0.594400
vn -0.853000 0.050100 -0.519500
vn -0.982700 0.184000 0.018600
vn 0.993800 0.109700 0.017100
vn 0.001900 -0.999900 0.009300
vn 0.001300 -1.000000 0.006700
vn 0.003100 -0.999800 0.015600
vn 0.000000 -1.000000 0.000000
vn 0.633900 0.035600 -0.772500
vn 0.664300 0.049500 -0.745800
vn -0.640400 0.095700 -0.762000
vn -0.671100 0.135600 -0.728800
vn 0.705800 0.027300 0.707800
vn -0.700500 0.114500 0.704400
vn -0.812000 0.105900 0.573900
vn 0.771700 -0.049800 0.634000
vn 0.000000 -0.091700 -0.995800
vn -0.703600 0.072100 -0.706800
vn 0.000000 -0.016900 -0.999800
vn -0.791000 -0.037200 0.610700
vn -0.757400 0.134100 0.639000
vn 0.000000 0.023200 0.999700
vn 0.000000 -0.138700 0.990300
vn -0.852300 0.019300 0.522700
vn -0.738700 0.045000 -0.672500
vn 0.000000 0.000000 1.000000
vn 0.000000 0.036300 -0.999300
vn -0.340700 -0.029900 -0.939700
vn -0.220100 0.003300 0.975500
vn 0.716600 -0.115600 0.687800
vn 0.714900 -0.229300 -0.660500
vn -0.691300 0.306600 0.654200
vn -0.659300 0.338300 0.671400
vn 0.531800 -0.243800 0.811000
vn -0.762300 0.122200 -0.635500
vn 0.714300 0.369300 -0.594400
vn -0.656600 0.381900 -0.650400
vn -0.808900 0.139000 0.571200
vn 0.659200 -0.082500 0.747400
vn -0.709500 0.702300 -0.057700
vn -0.341400 0.662300 -0.666900
vn -0.426500 0.753400 0.500400
vn 0.000000 0.514800 -0.857300
vn 0.000000 0.513600 0.858000
vn 0.000000 0.073900 0.997300
vn 0.000000 0.108900 -0.994000
vn -0.727000 0.364200 -0.582000
vn -0.788800 0.389000 0.475700
vn 0.795300 0.292000 -0.531200
vn -0.705000 -0.121800 -0.698600
vn -0.723500 -0.335200 0.603400
vn 0.369800 -0.733800 -0.569900
vn 0.346100 -0.619000 0.705000
vn 0.660000 -0.312700 0.683100
vn 0.527800 -0.200100 -0.825400
vn 0.000000 -0.024600 -0.999700
vn -0.941300 -0.303500 0.147500
vn 0.000000 -0.839800 -0.542800
vn 0.000000 -0.320000 0.947400
vn -0.408200 -0.912700 -0.020900
vn 0.000000 -0.999700 -0.022900
vn -0.854300 -0.208700 -0.476000
vn -0.898600 -0.051400 -0.435700
vn 0.000000 -0.061900 -0.998100
vn 0.000000 -0.209400 -0.977800
vn -0.868100 -0.151100 0.472800
vn 0.000000 -0.306300 0.951900
vn -0.747100 0.505100 0.432000
vn -0.762300 0.505100 -0.404600
vn 0.000000 0.391600 -0.920100
vn 0.000000 0.948300 -0.317500
vn 0.000000 0.498800 0.866700
vn 0.000000 0.990600 0.136400
vn 0.762300 0.505100 -0.404600
vn 0.898600 -0.051400 -0.435700
vn 0.868100 -0.151100 0.472800
vn 0.747100 0.505100 0.432000
vn 0.941300 -0.303500 0.147500
vn 0.854300 -0.208700 -0.475900
vn 0.408200 -0.912700 -0.020900
vn 0.220100 0.003300 0.975500
vn 0.852300 0.019300 0.522700
vn 0.738700 0.045000 -0.672500
vn 0.340700 -0.029900 -0.939700
vn 0.709500 0.702300 -0.057700
vn -0.633900 0.035600 -0.772500
vn -0.771700 -0.049800 0.634000
vn -0.660000 -0.312700 0.683100
vn -0.527800 -0.200100 -0.825400
vn 0.671100 0.135600 -0.728800
vn 0.703600 0.072100 -0.706800
vn 0.812000 0.105900 0.573900
vn 0.791000 -0.037200 0.610700
vn 0.808900 0.139000 0.571200
vn -0.659200 -0.082500 0.747400
vn -0.346100 -0.619000 0.705000
vn 0.723500 -0.335200 0.603400
vn -0.795300 0.292000 -0.531200
vn -0.369800 -0.733800 -0.569900
vn 0.705000 -0.121800 -0.698600
vn -0.714300 0.369300 -0.594400
vn 0.656600 0.381900 -0.650400
vn -0.716600 -0.115600 0.687800
vn 0.691300 0.306600 0.654200
vn 0.788800 0.389000 0.475800
vn 0.727000 0.364200 -0.582000
vn 0.762300 0.122200 -0.635500
vn -0.714900 -0.229300 -0.660500
vn 0.426500 0.753400 0.500400
vn 0.341400 0.662300 -0.666900
vn -0.531800 -0.243800 0.811000
vn 0.659300 0.338300 0.671400
vn 0.757400 0.134100 0.639000
vn -0.664300 0.049500 -0.745800
vn -0.705800 0.027300 0.707800
vn 0.700500 0.114500 0.704400
vn 0.640400 0.095700 -0.762000
vn -0.685100 -0.025700 0.728000
vn -0.872800 0.244000 -0.422700
vn 0.866300 0.339600 -0.366200
vn 0.659700 0.060400 0.749000
vn -0.001900 -0.999900 0.009300
vn -0.001300 -1.000000 0.006700
vn -0.003100 -0.999800 0.015600
vn 0.625800 0.144200 0.766500
vn 0.982700 0.184000 0.018600
vn -0.993800 0.109700 0.017100
vn -0.769700 0.076800 0.633700
vn -0.444700 0.404500 -0.799100
vn -0.803700 -0.024700 -0.594400
vn 0.853000 0.050100 -0.519500
vn 0.555600 0.398200 -0.729900
usemtl Material
s 1
f 5/1/1 8/2/2 126/3/3
f 5/1/1 126/3/3 127/4/4
f 6/5/5 13/6/6 14/7/7
f 6/5/5 14/7/7 7/8/8
f 13/9/6 129/10/9 128/11/10
f 13/9/6 128/11/10 14/12/7
f 7/13/8 14/14/7 128/15/10
f 7/13/8 128/15/10 130/16/11
f 6/13/5 131/17/12 129/18/9
f 6/13/5 129/18/9 13/19/6
f 5/20/1 127/21/4 131/17/12
f 5/20/1 131/17/12 6/13/5
f 7/13/8 130/16/11 126/22/3
f 7/13/8 126/22/3 8/20/2
f 11/23/13 12/24/14 15/25/15
f 11/23/13 15/25/15 16/26/15
f 9/27/16 12/24/14 11/23/13
f 9/27/16 11/23/13 10/28/16
f 3/29/17 17/30/18 18/31/19
f 3/29/17 18/31/19 2/32/20
f 17/30/18 6/33/5 7/34/8
f 17/30/18 7/34/8 18/31/19
f 8/2/2 5/1/1 19/35/21
f 8/2/2 19/35/21 20/36/22
f 1/37/23 20/36/22 19/35/21
f 1/37/23 19/35/21 4/38/24
f 7/13/8 8/20/2 20/39/22
f 7/13/8 20/39/22 18/40/19
f 5/20/1 6/13/5 17/40/18
f 5/20/1 17/40/18 19/39/21
f 1/41/23 2/42/20 18/40/19
f 1/41/23 18/40/19 20/39/22
f 3/42/17 4/41/24 17/40/18
f 4/41/24 19/39/21 17/40/18
f 101/43/25 21/44/26 103/45/27
f 23/46/28 22/47/29 21/48/26
f 102/49/30 22/50/29 23/51/28
f 102/49/30 23/51/28 100/52/31
f 21/53/26 22/54/29 25/55/32
f 21/53/26 25/55/32 24/56/33
f 22/50/29 102/49/30 96/57/34
f 22/50/29 96/57/34 25/58/32
f 103/59/27 21/60/26 24/61/33
f 103/59/27 24/61/33 95/57/35
f 26/62/36 27/63/37 32/64/38
f 26/62/36 32/64/38 33/65/39
f 30/66/40 35/67/41 36/68/42
f 30/66/40 36/68/42 32/69/38
f 30/70/40 31/71/43 35/72/41
f 32/64/38 36/73/42 33/65/39
f 33/74/39 38/75/44 37/76/45
f 33/74/39 37/76/45 31/77/43
f 35/67/41 39/78/46 44/79/47
f 35/67/41 44/79/47 36/68/42
f 31/71/43 37/80/45 39/81/46
f 31/71/43 39/81/46 35/72/41
f 36/73/42 44/82/47 38/83/44
f 36/73/42 38/83/44 33/65/39
f 34/84/48 28/85/49 29/86/50
f 28/85/49 34/84/48 77/87/51
f 29/86/50 78/88/52 34/84/48
f 27/89/37 92/90/53 78/91/52
f 27/89/37 78/91/52 29/92/50
f 26/93/36 28/94/49 77/95/51
f 26/93/36 77/95/51 91/96/54
f 40/97/55 28/94/49 26/93/36
f 40/98/55 31/71/43 30/70/40
f 40/98/55 30/70/40 41/99/56
f 29/92/50 41/100/56 27/89/37
f 26/93/36 33/74/39 31/77/43
f 26/93/36 31/77/43 40/97/55
f 27/89/37 41/100/56 30/66/40
f 27/89/37 30/66/40 32/69/38
f 37/101/45 38/102/44 43/103/57
f 37/101/45 43/103/57 42/104/58
f 39/81/46 37/80/45 42/105/58
f 39/81/46 42/105/58 45/106/59
f 38/107/44 44/108/47 43/109/57
f 45/110/59 42/104/58 46/111/60
f 45/110/59 46/111/60 47/112/61
f 42/113/58 43/114/57 46/115/60
f 43/109/57 44/108/47 47/116/61
f 43/109/57 47/116/61 46/117/60
f 39/78/46 45/118/59 47/119/61
f 39/78/46 47/119/61 44/79/47
f 1/41/23 23/46/28 21/48/26
f 1/41/23 21/48/26 2/42/20
f 1/37/23 4/38/24 137/120/62
f 1/37/23 137/120/62 23/121/28
f 2/32/20 21/44/26 139/43/63
f 2/32/20 139/43/63 3/29/17
f 3/42/17 139/122/63 137/123/62
f 3/42/17 137/123/62 4/41/24
f 135/124/64 34/125/48 48/126/65
f 135/124/64 48/126/65 67/127/66
f 34/125/48 78/128/52 66/129/67
f 34/125/48 66/129/67 48/126/65
f 24/56/33 25/55/32 27/63/37
f 24/56/33 27/63/37 26/62/36
f 24/61/33 26/93/36 91/96/54
f 24/61/33 91/96/54 95/57/35
f 27/89/37 25/58/32 96/57/34
f 27/89/37 96/57/34 92/90/53
f 67/130/66 48/131/65 132/132/68
f 67/130/66 132/132/68 64/133/69
f 49/134/70 50/135/71 63/136/72
f 49/134/70 63/136/72 133/137/73
f 48/126/65 52/138/74 50/139/71
f 48/126/65 50/139/71 49/140/70
f 48/126/65 66/129/67 58/141/75
f 48/126/65 58/141/75 52/138/74
f 50/139/71 52/138/74 53/142/76
f 50/139/71 53/142/76 51/143/77
f 62/144/78 51/145/77 55/146/79
f 57/147/80 54/148/81 53/149/76
f 51/150/77 53/149/76 54/148/81
f 51/150/77 54/148/81 55/151/79
f 58/152/75 57/153/80 53/154/76
f 58/152/75 53/154/76 52/155/74
f 63/136/72 50/135/71 51/145/77
f 63/136/72 51/145/77 62/144/78
f 63/136/72 62/144/78 60/156/82
f 63/136/72 60/156/82 61/157/83
f 58/152/75 59/158/84 56/159/85
f 58/152/75 56/159/85 57/153/80
f 60/160/82 55/151/79 54/148/81
f 60/160/82 54/148/81 56/161/85
f 57/147/80 56/161/85 54/148/81
f 62/144/78 55/146/79 60/156/82
f 61/139/83 60/143/82 56/142/85
f 61/139/83 56/142/85 59/138/84
f 68/126/86 59/138/84 58/141/75
f 68/126/86 58/141/75 66/129/67
f 68/126/86 134/140/87 61/139/83
f 68/126/86 61/139/83 59/138/84
f 134/162/87 133/137/73 63/136/72
f 134/162/87 63/136/72 61/157/83
f 67/130/66 64/133/69 65/163/88
f 67/130/66 65/163/88 68/164/86
f 93/165/89 92/90/53 96/57/34
f 93/165/89 96/57/34 97/166/90
f 98/167/91 95/57/35 91/96/54
f 98/167/91 91/96/54 94/168/92
f 98/56/91 94/62/92 93/63/89
f 98/56/91 93/63/89 97/55/90
f 84/125/93 68/126/86 66/129/67
f 84/125/93 66/129/67 78/128/52
f 135/124/64 67/127/66 68/126/86
f 135/124/64 68/126/86 84/125/93
f 123/42/94 122/41/95 136/123/96
f 123/42/94 136/123/96 138/122/97
f 124/169/98 123/170/94 138/43/97
f 124/169/98 138/43/97 105/171/99
f 125/172/100 99/173/101 136/120/96
f 125/172/100 136/120/96 122/174/95
f 125/41/100 124/42/98 105/48/99
f 125/41/100 105/48/99 99/46/101
f 79/175/102 72/176/103 69/177/104
f 79/175/102 69/177/104 71/178/105
f 73/109/106 70/117/107 69/116/104
f 73/109/106 69/116/104 72/108/103
f 74/179/108 70/180/107 73/181/106
f 71/182/105 69/183/104 70/184/107
f 71/182/105 70/184/107 74/185/108
f 80/107/109 73/109/106 72/108/103
f 79/81/102 71/106/105 74/105/108
f 79/81/102 74/105/108 81/80/110
f 81/186/110 74/187/108 73/188/106
f 81/186/110 73/188/106 80/189/109
f 93/165/89 86/190/111 88/191/112
f 93/165/89 88/191/112 75/192/113
f 94/168/92 76/193/114 87/194/115
f 94/168/92 87/194/115 85/195/116
f 89/196/117 93/165/89 75/192/113
f 76/98/114 75/99/113 88/70/112
f 76/98/114 88/70/112 87/71/115
f 76/193/114 94/168/92 90/197/118
f 94/168/92 91/96/54 77/95/51
f 94/168/92 77/95/51 90/197/118
f 93/165/89 89/196/117 78/91/52
f 93/165/89 78/91/52 92/90/53
f 89/198/117 84/199/93 78/88/52
f 90/200/118 77/87/51 84/199/93
f 84/199/93 89/198/117 90/200/118
f 82/73/119 85/65/116 80/83/109
f 82/73/119 80/83/109 72/82/103
f 87/71/115 83/72/120 79/81/102
f 87/71/115 79/81/102 81/80/110
f 83/201/120 82/202/119 72/176/103
f 83/201/120 72/176/103 79/175/102
f 85/195/116 87/194/115 81/186/110
f 85/195/116 81/186/110 80/189/109
f 86/64/111 85/65/116 82/73/119
f 88/70/112 83/72/120 87/71/115
f 88/191/112 86/190/111 82/202/119
f 88/191/112 82/202/119 83/201/120
f 94/62/92 85/65/116 86/64/111
f 94/62/92 86/64/111 93/63/89
f 103/59/27 95/57/35 98/167/91
f 103/59/27 98/167/91 105/203/99
f 104/204/121 97/166/90 96/57/34
f 104/204/121 96/57/34 102/49/30
f 105/53/99 98/56/91 97/55/90
f 105/53/99 97/55/90 104/54/121
f 102/49/30 100/52/31 99/205/101
f 102/49/30 99/205/101 104/204/121
f 99/46/101 105/48/99 104/47/121
f 101/43/25 103/45/27 105/171/99
f 122/41/95 109/40/122 107/39/123
f 123/42/94 109/40/122 122/41/95
f 125/41/100 106/39/124 108/40/125
f 125/41/100 108/40/125 124/42/98
f 121/20/126 107/39/123 109/40/122
f 121/20/126 109/40/122 120/13/127
f 119/13/128 108/40/125 106/39/124
f 119/13/128 106/39/124 118/20/129
f 125/172/100 122/174/95 107/206/123
f 125/172/100 107/206/123 106/207/124
f 118/208/129 106/207/124 107/206/123
f 118/208/129 107/206/123 121/209/126
f 109/210/122 108/211/125 119/212/128
f 109/210/122 119/212/128 120/213/127
f 123/170/94 124/169/98 108/211/125
f 123/170/94 108/211/125 109/210/122
f 141/214/16 143/215/16 142/216/130
f 141/214/16 142/216/130 140/217/131
f 142/216/130 144/218/132 145/219/132
f 142/216/130 145/219/132 140/217/131
f 119/13/128 118/20/129 117/22/133
f 119/13/128 117/22/133 114/16/134
f 121/20/126 120/13/127 115/17/135
f 121/20/126 115/17/135 116/21/136
f 120/13/127 113/19/137 110/18/138
f 120/13/127 110/18/138 115/17/135
f 119/13/128 114/16/134 111/15/139
f 119/13/128 111/15/139 112/14/140
f 113/220/137 112/221/140 111/222/139
f 113/220/137 111/222/139 110/223/138
f 120/224/127 119/225/128 112/226/140
f 120/224/127 112/226/140 113/227/137
f 121/209/126 116/228/136 117/229/133
f 121/209/126 117/229/133 118/208/129
f 28/230/49 40/231/55 29/232/50
f 29/230/50 40/232/55 41/231/56
f 75/230/113 76/232/114 89/231/117
f 76/230/114 90/231/118 89/232/117
